<svg width="46" height="26" viewBox="0 0 46 26" fill="none" xmlns="http://www.w3.org/2000/svg">
<path fill-rule="evenodd" clip-rule="evenodd" d="M44.274 2.40606C44.6077 1.43297 44.274 0.725584 42.7974 0.725584H37.8877C36.6493 0.725584 36.0774 1.34498 35.7437 2.00751C35.7437 2.00751 33.2181 7.66661 29.6912 11.3355C28.5474 12.3966 28.0234 12.7503 27.4037 12.7503C27.0699 12.7503 26.6406 12.3966 26.6406 11.4244V2.36034C26.6406 1.21127 26.2599 0.680725 25.2109 0.680725H17.4896C16.7265 0.680725 16.2502 1.21127 16.2502 1.74181C16.2502 2.84688 18.0137 3.11259 18.204 6.20698V12.9306C18.204 14.3894 17.9228 14.6559 17.2984 14.6559C15.6306 14.6559 11.5796 8.95285 9.14962 2.45437C8.67712 1.16727 8.19712 0.680725 6.95775 0.680725H2.00119C0.571499 0.680725 0.333374 1.29926 0.333374 1.96265C0.333374 3.15658 2.00119 9.16852 8.1015 17.1258C12.1524 22.5606 17.919 25.4816 23.1137 25.4816C26.2599 25.4816 26.6406 24.8182 26.6406 23.7131V19.6016C26.6406 18.2757 26.9265 18.0549 27.9277 18.0549C28.6421 18.0549 29.9293 18.4077 32.8365 21.0164C36.1721 24.1108 36.744 25.5256 38.6031 25.5256H43.5118C44.9415 25.5256 45.609 24.8622 45.2274 23.5802C44.799 22.2983 43.1781 20.4419 41.0809 18.2317C39.9371 16.9946 38.2215 15.6239 37.6974 14.9605C36.9831 14.0762 37.1734 13.7225 37.6974 12.9272C37.6496 12.9272 43.6553 5.0579 44.274 2.40261" fill="black"/>
</svg>
