<svg width="44" height="31" viewBox="0 0 44 31" fill="none" xmlns="http://www.w3.org/2000/svg">
<path d="M43.7173 6.77256C43.7173 3.17821 40.8724 0.286749 37.3571 0.286749C32.5956 0.0798742 27.7395 0 22.7768 0H21.2298C16.2791 0 11.4145 0.0798744 6.65292 0.287548C3.14623 0.287548 0.301342 3.19498 0.301342 6.78933C0.086471 9.63206 -0.00463424 12.4756 0.000522659 15.3191C-0.00807218 18.1627 0.089336 21.0089 0.292747 23.8577C0.292747 27.4521 3.13764 30.3675 6.64433 30.3675C11.6465 30.5831 16.7776 30.679 21.9947 30.671C27.2204 30.687 32.3372 30.5858 37.3451 30.3675C40.8604 30.3675 43.7053 27.4521 43.7053 23.8577C43.9115 21.0062 44.0061 18.1627 43.9975 15.3111C44.017 12.4676 43.9236 9.62141 43.7173 6.77256ZM17.7918 23.1548V7.45948L30.2543 15.3032L17.7918 23.1548Z" fill="black"/>
</svg>
